<?xml version="1.0" encoding="UTF-8" standalone="no"?>
<!-- Created with Inkscape (http://www.inkscape.org/) -->

<svg
   xmlns:dc="http://purl.org/dc/elements/1.1/"
   xmlns:cc="http://creativecommons.org/ns#"
   xmlns:rdf="http://www.w3.org/1999/02/22-rdf-syntax-ns#"
   xmlns:svg="http://www.w3.org/2000/svg"
   xmlns="http://www.w3.org/2000/svg"
   xmlns:sodipodi="http://sodipodi.sourceforge.net/DTD/sodipodi-0.dtd"
   xmlns:inkscape="http://www.inkscape.org/namespaces/inkscape"
   width="270"
   height="180"
   viewBox="0 0 270 180"
   id="svg7711"
   version="1.1"
   inkscape:version="0.91 r13725"
   sodipodi:docname="eva-logo.svg">
  <defs
     id="defs7713" />
  <sodipodi:namedview
     id="base"
     pagecolor="#ffffff"
     bordercolor="#666666"
     borderopacity="1.0"
     inkscape:pageopacity="0.0"
     inkscape:pageshadow="2"
     inkscape:zoom="4.7166667"
     inkscape:cx="94.61131"
     inkscape:cy="73.073104"
     inkscape:document-units="px"
     inkscape:current-layer="layer2"
     showgrid="true"
     inkscape:window-width="1920"
     inkscape:window-height="1018"
     inkscape:window-x="-8"
     inkscape:window-y="-8"
     inkscape:window-maximized="1"
     units="px"
     showguides="true"
     inkscape:guide-bbox="true">
    <inkscape:grid
       type="xygrid"
       id="grid7719"
       spacingx="10"
       spacingy="10" />
    <sodipodi:guide
       position="135,90"
       orientation="0,1"
       id="guide7721"
       inkscape:label=""
       inkscape:color="rgb(0,0,255)" />
    <sodipodi:guide
       position="135,100"
       orientation="1,0"
       id="guide7723"
       inkscape:label=""
       inkscape:color="rgb(0,0,255)" />
  </sodipodi:namedview>
  <metadata
     id="metadata7716">
    <rdf:RDF>
      <cc:Work
         rdf:about="">
        <dc:format>image/svg+xml</dc:format>
        <dc:type
           rdf:resource="http://purl.org/dc/dcmitype/StillImage" />
        <dc:title />
      </cc:Work>
    </rdf:RDF>
  </metadata>
  <g
     inkscape:groupmode="layer"
     id="layer2"
     inkscape:label="Background"
     style="display:inline">
    <rect
       style="opacity:0.978;fill:#003399;fill-opacity:1;fill-rule:nonzero;stroke:none"
       id="rect3387"
       width="270"
       height="180"
       x="0"
       y="0" />
  </g>
  <g
     inkscape:label="Logo"
     inkscape:groupmode="layer"
     id="layer1"
     transform="translate(0,-872.36216)">
    <path
       inkscape:transform-center-y="-0.95491503"
       d="m 135,892.36218 2.24534,6.90956 7.26523,2.7e-4 -5.87753,4.27062 2.24481,6.90972 -5.87785,-4.27017 -5.87785,4.27017 2.24481,-6.90972 -5.87753,-4.27062 7.26523,-2.7e-4 z"
       inkscape:randomized="0"
       inkscape:rounded="0"
       inkscape:flatsided="false"
       sodipodi:arg2="-0.9424778"
       sodipodi:arg1="-1.5707963"
       sodipodi:r2="3.8199999"
       sodipodi:r1="10"
       sodipodi:cy="902.36218"
       sodipodi:cx="135"
       sodipodi:sides="5"
       id="path7727"
       style="opacity:0.978;fill:#ffcc00;fill-opacity:1;fill-rule:nonzero;stroke:none"
       sodipodi:type="star" />
    <path
       inkscape:transform-center-y="-0.95491503"
       d="m 135,1012.3622 2.24534,6.9095 7.26523,3e-4 -5.87753,4.2706 2.24481,6.9098 -5.87785,-4.2702 -5.87785,4.2702 2.24481,-6.9098 -5.87753,-4.2706 7.26523,-3e-4 z"
       inkscape:randomized="0"
       inkscape:rounded="0"
       inkscape:flatsided="false"
       sodipodi:arg2="-0.9424778"
       sodipodi:arg1="-1.5707963"
       sodipodi:r2="3.8199999"
       sodipodi:r1="10"
       sodipodi:cy="1022.3622"
       sodipodi:cx="135"
       sodipodi:sides="5"
       id="path7729"
       style="opacity:0.978;fill:#ffcc00;fill-opacity:1;fill-rule:nonzero;stroke:none"
       sodipodi:type="star" />
    <path
       inkscape:transform-center-y="-0.95491503"
       d="m 195,952.36218 2.24534,6.90956 7.26523,2.7e-4 -5.87753,4.27062 2.24481,6.90972 -5.87785,-4.27017 -5.87785,4.27017 2.24481,-6.90972 -5.87753,-4.27062 7.26523,-2.7e-4 z"
       inkscape:randomized="0"
       inkscape:rounded="0"
       inkscape:flatsided="false"
       sodipodi:arg2="-0.9424778"
       sodipodi:arg1="-1.5707963"
       sodipodi:r2="3.8199999"
       sodipodi:r1="10"
       sodipodi:cy="962.36218"
       sodipodi:cx="195"
       sodipodi:sides="5"
       id="path7731"
       style="opacity:0.978;fill:#ffcc00;fill-opacity:1;fill-rule:nonzero;stroke:none"
       sodipodi:type="star" />
    <path
       inkscape:transform-center-y="-0.95491503"
       d="m 75,952.36218 2.24534,6.90956 7.265225,2.7e-4 -5.877529,4.27062 2.244816,6.90972 L 75,966.18218 l -5.877853,4.27017 2.244817,-6.90972 -5.877529,-4.27062 7.265225,-2.7e-4 z"
       inkscape:randomized="0"
       inkscape:rounded="0"
       inkscape:flatsided="false"
       sodipodi:arg2="-0.9424778"
       sodipodi:arg1="-1.5707963"
       sodipodi:r2="3.8199999"
       sodipodi:r1="10"
       sodipodi:cy="962.36218"
       sodipodi:cx="75"
       sodipodi:sides="5"
       id="path7733"
       style="opacity:0.978;fill:#ffcc00;fill-opacity:1;fill-rule:nonzero;stroke:none"
       sodipodi:type="star" />
    <path
       inkscape:transform-center-y="-0.95491503"
       d="m 187,922.36218 2.24534,6.90956 7.26523,2.7e-4 -5.87753,4.27062 2.24481,6.90972 -5.87785,-4.27017 -5.87785,4.27017 2.24481,-6.90972 -5.87753,-4.27062 7.26523,-2.7e-4 z"
       inkscape:randomized="0"
       inkscape:rounded="0"
       inkscape:flatsided="false"
       sodipodi:arg2="-0.9424778"
       sodipodi:arg1="-1.5707963"
       sodipodi:r2="3.8199999"
       sodipodi:r1="10"
       sodipodi:cy="932.36218"
       sodipodi:cx="187"
       sodipodi:sides="5"
       id="path7735"
       style="opacity:0.978;fill:#ffcc00;fill-opacity:1;fill-rule:nonzero;stroke:none"
       sodipodi:type="star" />
    <path
       inkscape:transform-center-y="-0.95491503"
       d="m 83,922.36218 2.24534,6.90956 7.265225,2.7e-4 -5.877529,4.27062 2.244816,6.90972 L 83,936.18218 l -5.877853,4.27017 2.244817,-6.90972 -5.877529,-4.27062 7.265225,-2.7e-4 z"
       inkscape:randomized="0"
       inkscape:rounded="0"
       inkscape:flatsided="false"
       sodipodi:arg2="-0.9424778"
       sodipodi:arg1="-1.5707963"
       sodipodi:r2="3.8199999"
       sodipodi:r1="10"
       sodipodi:cy="932.36218"
       sodipodi:cx="83"
       sodipodi:sides="5"
       id="path7737"
       style="opacity:0.978;fill:#ffcc00;fill-opacity:1;fill-rule:nonzero;stroke:none"
       sodipodi:type="star" />
    <path
       inkscape:transform-center-y="-0.95491503"
       d="m 83,982.36218 2.24534,6.90956 7.265225,2.7e-4 -5.877529,4.27062 2.244816,6.90977 L 83,996.18218 l -5.877853,4.27022 2.244817,-6.90977 -5.877529,-4.27062 7.265225,-2.7e-4 z"
       inkscape:randomized="0"
       inkscape:rounded="0"
       inkscape:flatsided="false"
       sodipodi:arg2="-0.9424778"
       sodipodi:arg1="-1.5707963"
       sodipodi:r2="3.8199999"
       sodipodi:r1="10"
       sodipodi:cy="992.36218"
       sodipodi:cx="83"
       sodipodi:sides="5"
       id="path7739"
       style="opacity:0.978;fill:#ffcc00;fill-opacity:1;fill-rule:nonzero;stroke:none"
       sodipodi:type="star" />
    <path
       inkscape:transform-center-y="-0.95491503"
       d="m 187,982.36218 2.24534,6.90956 7.26523,2.7e-4 -5.87753,4.27062 2.24481,6.90977 -5.87785,-4.27022 -5.87785,4.27022 2.24481,-6.90977 -5.87753,-4.27062 7.26523,-2.7e-4 z"
       inkscape:randomized="0"
       inkscape:rounded="0"
       inkscape:flatsided="false"
       sodipodi:arg2="-0.9424778"
       sodipodi:arg1="-1.5707963"
       sodipodi:r2="3.8199999"
       sodipodi:r1="10"
       sodipodi:cy="992.36218"
       sodipodi:cx="187"
       sodipodi:sides="5"
       id="path7741"
       style="opacity:0.978;fill:#ffcc00;fill-opacity:1;fill-rule:nonzero;stroke:none"
       sodipodi:type="star" />
    <path
       inkscape:transform-center-y="-0.95491503"
       d="m 165,1004.3622 2.24534,6.9095 7.26523,3e-4 -5.87753,4.2706 2.24481,6.9098 -5.87785,-4.2702 -5.87785,4.2702 2.24481,-6.9098 -5.87753,-4.2706 7.26523,-3e-4 z"
       inkscape:randomized="0"
       inkscape:rounded="0"
       inkscape:flatsided="false"
       sodipodi:arg2="-0.9424778"
       sodipodi:arg1="-1.5707963"
       sodipodi:r2="3.8199999"
       sodipodi:r1="10"
       sodipodi:cy="1014.3622"
       sodipodi:cx="165"
       sodipodi:sides="5"
       id="path7743"
       style="opacity:0.978;fill:#ffcc00;fill-opacity:1;fill-rule:nonzero;stroke:none"
       sodipodi:type="star" />
    <path
       sodipodi:type="star"
       style="opacity:0.978;fill:#ffcc00;fill-opacity:1;fill-rule:nonzero;stroke:none"
       id="path7745"
       sodipodi:sides="5"
       sodipodi:cx="105"
       sodipodi:cy="1014.3622"
       sodipodi:r1="10"
       sodipodi:r2="3.8199999"
       sodipodi:arg1="-1.5707963"
       sodipodi:arg2="-0.9424778"
       inkscape:flatsided="false"
       inkscape:rounded="0"
       inkscape:randomized="0"
       d="m 105,1004.3622 2.24534,6.9095 7.26523,3e-4 -5.87753,4.2706 2.24481,6.9098 -5.87785,-4.2702 -5.877853,4.2702 2.244813,-6.9098 -5.877525,-4.2706 7.265225,-3e-4 z"
       inkscape:transform-center-y="-0.95491503" />
    <path
       inkscape:transform-center-y="-0.95491503"
       d="m 105,900.36218 2.24534,6.90956 7.26523,2.7e-4 -5.87753,4.27062 2.24481,6.90972 -5.87785,-4.27017 -5.877853,4.27017 2.244813,-6.90972 -5.877525,-4.27062 7.265225,-2.7e-4 z"
       inkscape:randomized="0"
       inkscape:rounded="0"
       inkscape:flatsided="false"
       sodipodi:arg2="-0.9424778"
       sodipodi:arg1="-1.5707963"
       sodipodi:r2="3.8199999"
       sodipodi:r1="10"
       sodipodi:cy="910.36218"
       sodipodi:cx="105"
       sodipodi:sides="5"
       id="path7747"
       style="opacity:0.978;fill:#ffcc00;fill-opacity:1;fill-rule:nonzero;stroke:none"
       sodipodi:type="star" />
    <path
       sodipodi:type="star"
       style="opacity:0.978;fill:#ffcc00;fill-opacity:1;fill-rule:nonzero;stroke:none"
       id="path7749"
       sodipodi:sides="5"
       sodipodi:cx="165"
       sodipodi:cy="910.36218"
       sodipodi:r1="10"
       sodipodi:r2="3.8199999"
       sodipodi:arg1="-1.5707963"
       sodipodi:arg2="-0.9424778"
       inkscape:flatsided="false"
       inkscape:rounded="0"
       inkscape:randomized="0"
       d="m 165,900.36218 2.24534,6.90956 7.26523,2.7e-4 -5.87753,4.27062 2.24481,6.90972 -5.87785,-4.27017 -5.87785,4.27017 2.24481,-6.90972 -5.87753,-4.27062 7.26523,-2.7e-4 z"
       inkscape:transform-center-y="-0.95491503" />
  </g>
  <g
     inkscape:groupmode="layer"
     id="layer3"
     inkscape:label="Text"
     style="display:inline">
    <path
       style="opacity:0.978;fill:#ffcc00;fill-opacity:1;fill-rule:nonzero;stroke:none"
       d="m 95.955882,66.06007 c -1.048279,0 -1.892201,0.85418 -1.892201,1.9152 l 0,5.74558 0,13.40636 0,5.74558 0,13.40636 0,5.74559 c 0,1.06101 0.843922,1.91519 1.892201,1.91519 l 5.676598,0 18.92201,0 c 1.04828,0 1.8922,-0.85418 1.8922,-1.91519 l 0,-5.74559 c 0,-1.06102 -0.84392,-1.91519 -1.8922,-1.91519 l -17.02981,0 0,-9.57597 7.56881,0 c 1.04828,0 1.8922,-0.85418 1.8922,-1.9152 l 0,-5.74558 c 0,-1.06102 -0.84392,-1.9152 -1.8922,-1.9152 l -7.56881,0 0,-9.57597 15.64946,0 13.12715,36.50465 c 0.35853,0.99703 1.49067,1.79924 2.53895,1.79924 l 5.6766,0 0.29935,0 c 1.04828,0 2.18226,-0.80221 2.54079,-1.79924 l 11.50474,-31.99534 11.50473,31.99534 c 0.35852,0.99703 1.49066,1.79924 2.53894,1.79924 l 5.67661,0 c 1.04827,0 1.60398,-0.80221 1.24545,-1.79924 L 159.90451,67.85931 c -0.11432,-0.31789 -0.31235,-0.61104 -0.55621,-0.8697 -0.12368,-0.55242 -0.59991,-0.92954 -1.31383,-0.92954 l -0.66892,0 -5.6766,0 c -0.71459,0 -1.19072,0.37813 -1.31382,0.93142 -0.24342,0.25842 -0.44204,0.55034 -0.5562,0.86782 L 137.82821,101.20314 125.8375,67.85931 c -0.35854,-0.99703 -1.49067,-1.79924 -2.53895,-1.79924 l -2.74406,0 -18.92201,0 -5.676598,0 z"
       id="rect7755"
       inkscape:connector-curvature="0" />
  </g>
</svg>
